# xmcd CD database file
#
# Track frame offsets:
#	150
#	13122
#	31013
#	42647
#	56587
#	70381
#	87912
#	103198
#	117801
#	132229
#
# Disc length: 1928 seconds
#
# Revision: 0
# Processed by: cddbd v1.5.2PL0 Copyright (c) Steve Scherf et al.
# Submitted via: CDex 1.82
#
DISCID=8607860a
DTITLE=Kelly Auty Band - Kelly's Blues
DYEAR=2018
DGENRE=Blues
TTITLE0=Heaven or Hell
TTITLE1=Hooks in me
TTITLE2=Too short
TTITLE3=Sing it for me
TTITLE4=Once we start
TTITLE5=Won't miss you
TTITLE6=Don't cry
TTITLE7=Hot tin roof
TTITLE8=My baby showed me
TTITLE9=Bittersweet
EXTD=YEAR: 2018
EXTT0=
EXTT1=
EXTT2=
EXTT3=
EXTT4=
EXTT5=
EXTT6=
EXTT7=
EXTT8=
EXTT9=
PLAYORDER=
